<svg width="210" height="46" viewBox="0 0 210 46" fill="none" xmlns="http://www.w3.org/2000/svg">
<path d="M29.144 13H33.624V45H29.144L28.984 39.048C27.9387 41.0747 26.4773 42.7173 24.6 43.976C22.7227 45.2133 20.4827 45.832 17.88 45.832C15.5333 45.832 13.336 45.3947 11.288 44.52C9.24 43.624 7.43733 42.3973 5.88 40.84C4.32267 39.2827 3.10667 37.48 2.232 35.432C1.35733 33.384 0.92 31.1867 0.92 28.84C0.92 26.536 1.34667 24.3707 2.2 22.344C3.07467 20.3173 4.26933 18.536 5.784 17C7.32 15.464 9.09067 14.2693 11.096 13.416C13.1227 12.5413 15.288 12.104 17.592 12.104C20.2587 12.104 22.584 12.744 24.568 14.024C26.552 15.2827 28.1307 16.936 29.304 18.984L29.144 13ZM17.784 41.48C20.0667 41.48 22.0293 40.9253 23.672 39.816C25.3147 38.6853 26.5733 37.1707 27.448 35.272C28.344 33.3733 28.792 31.2827 28.792 29C28.792 26.6533 28.344 24.5413 27.448 22.664C26.552 20.7653 25.2827 19.2613 23.64 18.152C21.9973 17.0427 20.0453 16.488 17.784 16.488C15.5227 16.488 13.4533 17.0533 11.576 18.184C9.72 19.2933 8.23733 20.7973 7.128 22.696C6.04 24.5947 5.496 26.696 5.496 29C5.496 31.3253 6.06133 33.4373 7.192 35.336C8.32267 37.2133 9.816 38.7067 11.672 39.816C13.5493 40.9253 15.5867 41.48 17.784 41.48ZM56.3795 17.48H48.7315L48.6995 45H44.2195L44.2515 17.48H38.4595V13H44.2515L44.2195 2.952H48.6995L48.7315 13H56.3795V17.48ZM62.09 45V13H66.57V17.416C67.7007 15.7947 69.1727 14.504 70.986 13.544C72.7993 12.584 74.7727 12.104 76.906 12.104C78.1433 12.104 79.338 12.264 80.49 12.584L78.666 17.032C77.77 16.7547 76.8953 16.616 76.042 16.616C74.314 16.616 72.7247 17.0427 71.274 17.896C69.8447 18.7493 68.7033 19.8907 67.85 21.32C66.9967 22.7493 66.57 24.3387 66.57 26.088V45H62.09ZM96.92 45.832C93.976 45.832 91.288 45.0747 88.856 43.56C86.4453 42.0453 84.5147 40.0187 83.064 37.48C81.6347 34.92 80.92 32.0933 80.92 29C80.92 26.6533 81.336 24.4667 82.168 22.44C83 20.392 84.1413 18.6 85.592 17.064C87.064 15.5067 88.7707 14.2907 90.712 13.416C92.6533 12.5413 94.7227 12.104 96.92 12.104C99.864 12.104 102.541 12.8613 104.952 14.376C107.384 15.8907 109.315 17.928 110.744 20.488C112.195 23.048 112.92 25.8853 112.92 29C112.92 31.3253 112.504 33.5013 111.672 35.528C110.84 37.5547 109.688 39.3467 108.216 40.904C106.765 42.44 105.069 43.6453 103.128 44.52C101.208 45.3947 99.1387 45.832 96.92 45.832ZM96.92 41.352C99.096 41.352 101.048 40.7867 102.776 39.656C104.525 38.504 105.901 36.9893 106.904 35.112C107.928 33.2347 108.44 31.1973 108.44 29C108.44 26.76 107.928 24.7013 106.904 22.824C105.88 20.9253 104.493 19.4107 102.744 18.28C101.016 17.1493 99.0747 16.584 96.92 16.584C94.744 16.584 92.7813 17.16 91.032 18.312C89.304 19.4427 87.928 20.9467 86.904 22.824C85.9013 24.7013 85.4 26.76 85.4 29C85.4 31.304 85.9227 33.3947 86.968 35.272C88.0133 37.128 89.4107 38.6107 91.16 39.72C92.9093 40.808 94.8293 41.352 96.92 41.352ZM115.517 45L121.789 0.199997H137.789C140.221 0.199997 142.333 0.807997 144.125 2.024C145.938 3.24 147.282 4.872 148.157 6.92C149.031 8.968 149.287 11.2187 148.925 13.672C148.583 16.1893 147.666 18.472 146.173 20.52C144.701 22.5467 142.887 24.168 140.733 25.384C138.599 26.5787 136.359 27.176 134.013 27.176H125.821L123.325 45H115.517ZM126.909 19.368H134.269C135.378 19.368 136.423 19.0907 137.405 18.536C138.407 17.9813 139.25 17.2347 139.933 16.296C140.637 15.3573 141.053 14.312 141.181 13.16C141.373 11.9867 141.255 10.9307 140.829 9.992C140.402 9.05333 139.762 8.30667 138.909 7.752C138.077 7.19733 137.106 6.92 135.997 6.92H128.669L126.909 19.368ZM162.156 45.832C159.212 45.832 156.631 45.0747 154.412 43.56C152.215 42.0453 150.572 40.0187 149.484 37.48C148.417 34.92 148.097 32.0933 148.524 29C148.844 26.6533 149.559 24.4667 150.668 22.44C151.799 20.392 153.207 18.6 154.892 17.064C156.577 15.5067 158.444 14.2907 160.492 13.416C162.561 12.5413 164.695 12.104 166.892 12.104C169.836 12.104 172.407 12.8613 174.604 14.376C176.823 15.8907 178.476 17.928 179.564 20.488C180.652 23.048 180.972 25.8853 180.524 29C180.204 31.3253 179.479 33.5013 178.348 35.528C177.239 37.5547 175.841 39.3467 174.156 40.904C172.471 42.44 170.604 43.6453 168.556 44.52C166.508 45.3947 164.375 45.832 162.156 45.832ZM163.244 38.024C164.801 38.024 166.252 37.608 167.596 36.776C168.94 35.944 170.071 34.8453 170.988 33.48C171.927 32.1147 172.503 30.6213 172.716 29C172.951 27.336 172.791 25.8213 172.236 24.456C171.703 23.0693 170.871 21.9707 169.74 21.16C168.609 20.328 167.297 19.912 165.804 19.912C164.268 19.912 162.817 20.328 161.452 21.16C160.108 21.992 158.977 23.1013 158.06 24.488C157.143 25.8747 156.567 27.3787 156.332 29C156.097 30.6853 156.257 32.2107 156.812 33.576C157.367 34.9413 158.209 36.0293 159.34 36.84C160.471 37.6293 161.772 38.024 163.244 38.024ZM192.861 45.576C191.218 45.4693 189.661 45.1387 188.189 44.584C186.717 44.008 185.447 43.2293 184.381 42.248C183.335 41.2667 182.588 40.0933 182.14 38.728L189.149 35.912C189.341 36.3387 189.682 36.7973 190.173 37.288C190.685 37.7573 191.314 38.152 192.061 38.472C192.829 38.792 193.693 38.952 194.653 38.952C195.463 38.952 196.253 38.8453 197.021 38.632C197.789 38.3973 198.439 38.0453 198.972 37.576C199.506 37.1067 199.826 36.4987 199.933 35.752C200.039 34.9627 199.837 34.3547 199.325 33.928C198.834 33.48 198.205 33.1493 197.437 32.936C196.669 32.7013 195.901 32.488 195.133 32.296C193.17 31.8907 191.378 31.2613 189.757 30.408C188.157 29.5547 186.919 28.456 186.045 27.112C185.17 25.7467 184.871 24.104 185.149 22.184C185.447 20.072 186.258 18.248 187.581 16.712C188.903 15.176 190.525 13.992 192.445 13.16C194.386 12.328 196.402 11.912 198.493 11.912C201.031 11.912 203.282 12.4453 205.245 13.512C207.229 14.5573 208.701 16.04 209.661 17.96L202.973 21.608C202.738 21.096 202.386 20.6267 201.917 20.2C201.447 19.752 200.893 19.3893 200.253 19.112C199.613 18.8133 198.93 18.6427 198.205 18.6C197.245 18.5573 196.349 18.6427 195.517 18.856C194.706 19.0693 194.023 19.432 193.469 19.944C192.935 20.456 192.605 21.1387 192.477 21.992C192.37 22.8027 192.605 23.4107 193.181 23.816C193.757 24.2 194.482 24.4987 195.357 24.712C196.231 24.9253 197.074 25.16 197.885 25.416C199.677 26.0347 201.33 26.792 202.845 27.688C204.359 28.584 205.533 29.6827 206.365 30.984C207.197 32.2853 207.463 33.8427 207.165 35.656C206.866 37.7253 205.991 39.5387 204.541 41.096C203.09 42.632 201.33 43.8053 199.26 44.616C197.191 45.4267 195.058 45.7467 192.861 45.576Z" fill="#061B16"/>
</svg>
